<?xml version="1.0" encoding="UTF-8" standalone="no"?>
<svg
   viewBox="0 0 100 100"
   version="1.1"
   id="svg6"
   sodipodi:docname="favicon.svg"
   inkscape:version="1.4.3 (0d15f75042, 2025-12-25)"
   inkscape:export-filename="favicon.png"
   inkscape:export-xdpi="96"
   inkscape:export-ydpi="96"
   xmlns:inkscape="http://www.inkscape.org/namespaces/inkscape"
   xmlns:sodipodi="http://sodipodi.sourceforge.net/DTD/sodipodi-0.dtd"
   xmlns="http://www.w3.org/2000/svg"
   xmlns:svg="http://www.w3.org/2000/svg">
  <sodipodi:namedview
     id="namedview6"
     pagecolor="#505050"
     bordercolor="#eeeeee"
     borderopacity="1"
     inkscape:showpageshadow="0"
     inkscape:pageopacity="0"
     inkscape:pagecheckerboard="0"
     inkscape:deskcolor="#505050"
     showguides="true"
     inkscape:zoom="3.6069484"
     inkscape:cx="54.339563"
     inkscape:cy="15.386968"
     inkscape:window-width="2259"
     inkscape:window-height="1156"
     inkscape:window-x="0"
     inkscape:window-y="0"
     inkscape:window-maximized="1"
     inkscape:current-layer="svg6" />
  <defs
     id="defs4">
    <!-- Gradient for the shield -->
    <linearGradient
       id="shieldGradient"
       x1="0%"
       y1="0%"
       x2="0%"
       y2="100%">
      <stop
         offset="0%"
         stop-color="#10b981"
         id="stop1" />
      <stop
         offset="100%"
         stop-color="#0a9668"
         id="stop2" />
    </linearGradient>
    <!-- Shine effect -->
    <linearGradient
       id="shineGradient"
       x1="0%"
       y1="0%"
       x2="100%"
       y2="100%">
      <stop
         offset="0%"
         stop-color="#ffffff"
         stop-opacity="0.3"
         id="stop3" />
      <stop
         offset="100%"
         stop-color="#ffffff"
         stop-opacity="0"
         id="stop4" />
    </linearGradient>
  </defs>
  <!-- Shield shape with gradient -->
  <path
     d="M50 10 L90 25 V60 C90 80 70 95 50 100 C30 95 10 80 10 60 V25 Z"
     fill="url(#shieldGradient)"
     stroke="#0a9668"
     stroke-width="2"
     id="path4" />
  <!-- Shine effect on shield -->
  <path
     d="M50 12 L85 25 V58 C85 76 68 90 50 95 C32 90 15 76 15 58 V25 Z"
     fill="url(#shineGradient)"
     stroke="none"
     id="path5" />
  <!-- Classic heart shape with clearly pointed bottom, properly centered -->
  <path
     d="m 50,37.418753 c 10,-10 23.286875,-8.059301 27.286875,1.940699 4,10 -4.975855,15.20989 -10.712654,21.461684 C 60.837422,67.07293 56.979621,74.533594 50,85.418753 42.810104,74.51981 39.30225,67.037522 33.714495,60.794306 28.12674,54.55109 19.544854,49.636695 23.544854,39.636695 27.544854,29.636695 40,27.418753 50,37.418753 Z"
     fill="#e11d48"
     stroke="#9f1239"
     stroke-width="1.5"
     stroke-linejoin="round"
     id="path6"
     sodipodi:nodetypes="cszczsc" />
</svg>
